<?xml version="1.0" encoding="UTF-8" ?>
<svg version="1.1" width="32" height="32" xmlns="http://www.w3.org/2000/svg" shape-rendering="crispEdges">
<rect x="0" y="0" width="1" height="2" fill="#945B28" />
<rect x="1" y="0" width="30" height="1" fill="#C19C4D" />
<rect x="31" y="0" width="1" height="2" fill="#945B28" />
<rect x="1" y="1" width="1" height="1" fill="#945B28" />
<rect x="2" y="1" width="28" height="1" fill="#C19C4D" />
<rect x="30" y="1" width="1" height="1" fill="#945B28" />
<rect x="0" y="2" width="2" height="28" fill="#8A6B3E" />
<rect x="2" y="2" width="28" height="28" fill="#79707E" />
<rect x="30" y="2" width="2" height="28" fill="#8A6B3E" />
<rect x="0" y="30" width="2" height="1" fill="#945B28" />
<rect x="2" y="30" width="28" height="2" fill="#523A2A" />
<rect x="30" y="30" width="2" height="1" fill="#945B28" />
<rect x="0" y="31" width="1" height="1" fill="#945B28" />
<rect x="1" y="31" width="1" height="1" fill="#523A2A" />
<rect x="30" y="31" width="1" height="1" fill="#523A2A" />
<rect x="31" y="31" width="1" height="1" fill="#945B28" />
</svg>