<?xml version="1.0" encoding="UTF-8" ?>
<svg version="1.1" width="64" height="64" xmlns="http://www.w3.org/2000/svg" shape-rendering="crispEdges">
<rect x="8" y="4" width="16" height="1" fill="#85113F" />
<rect x="6" y="5" width="2" height="1" fill="#85113F" />
<rect x="8" y="5" width="2" height="1" fill="#F69D3A" />
<rect x="10" y="5" width="12" height="31" fill="#E9ECB1" />
<rect x="22" y="5" width="2" height="1" fill="#F69D3A" />
<rect x="24" y="5" width="2" height="1" fill="#85113F" />
<rect x="5" y="6" width="1" height="2" fill="#85113F" />
<rect x="6" y="6" width="2" height="1" fill="#F69D3A" />
<rect x="8" y="6" width="2" height="30" fill="#E9ECB1" />
<rect x="22" y="6" width="2" height="30" fill="#E9ECB1" />
<rect x="24" y="6" width="2" height="1" fill="#F69D3A" />
<rect x="26" y="6" width="1" height="2" fill="#85113F" />
<rect x="6" y="7" width="1" height="1" fill="#F69D3A" />
<rect x="7" y="7" width="1" height="7" fill="#E9ECB1" />
<rect x="24" y="7" width="1" height="29" fill="#E9ECB1" />
<rect x="25" y="7" width="1" height="1" fill="#F69D3A" />
<rect x="4" y="8" width="1" height="48" fill="#85113F" />
<rect x="5" y="8" width="1" height="28" fill="#F69D3A" />
<rect x="6" y="8" width="1" height="3" fill="#E9ECB1" />
<rect x="25" y="8" width="1" height="28" fill="#E9ECB1" />
<rect x="26" y="8" width="1" height="28" fill="#F69D3A" />
<rect x="27" y="8" width="1" height="52" fill="#85113F" />
<rect x="6" y="11" width="1" height="3" fill="#F69D3A" />
<rect x="6" y="14" width="1" height="1" fill="#E9ECB1" />
<rect x="7" y="14" width="1" height="1" fill="#F69D3A" />
<rect x="6" y="15" width="1" height="1" fill="#F69D3A" />
<rect x="7" y="15" width="1" height="1" fill="#E9ECB1" />
<rect x="6" y="16" width="1" height="1" fill="#E9ECB1" />
<rect x="7" y="16" width="1" height="1" fill="#F69D3A" />
<rect x="6" y="17" width="1" height="1" fill="#F69D3A" />
<rect x="7" y="17" width="1" height="1" fill="#E9ECB1" />
<rect x="6" y="18" width="1" height="1" fill="#E9ECB1" />
<rect x="7" y="18" width="1" height="1" fill="#F69D3A" />
<rect x="6" y="19" width="1" height="1" fill="#F69D3A" />
<rect x="7" y="19" width="1" height="1" fill="#E9ECB1" />
<rect x="6" y="20" width="1" height="1" fill="#E9ECB1" />
<rect x="7" y="20" width="1" height="1" fill="#F69D3A" />
<rect x="6" y="21" width="1" height="1" fill="#F69D3A" />
<rect x="7" y="21" width="1" height="1" fill="#E9ECB1" />
<rect x="6" y="22" width="1" height="1" fill="#E9ECB1" />
<rect x="7" y="22" width="1" height="1" fill="#F69D3A" />
<rect x="6" y="23" width="1" height="1" fill="#F69D3A" />
<rect x="7" y="23" width="1" height="1" fill="#E9ECB1" />
<rect x="6" y="24" width="1" height="1" fill="#E9ECB1" />
<rect x="7" y="24" width="1" height="1" fill="#F69D3A" />
<rect x="6" y="25" width="1" height="1" fill="#F69D3A" />
<rect x="7" y="25" width="1" height="1" fill="#E9ECB1" />
<rect x="6" y="26" width="1" height="1" fill="#E9ECB1" />
<rect x="7" y="26" width="1" height="1" fill="#F69D3A" />
<rect x="6" y="27" width="1" height="1" fill="#F69D3A" />
<rect x="7" y="27" width="1" height="1" fill="#E9ECB1" />
<rect x="6" y="28" width="1" height="1" fill="#E9ECB1" />
<rect x="7" y="28" width="1" height="1" fill="#F69D3A" />
<rect x="6" y="29" width="1" height="1" fill="#F69D3A" />
<rect x="7" y="29" width="1" height="1" fill="#E9ECB1" />
<rect x="6" y="30" width="1" height="1" fill="#E9ECB1" />
<rect x="7" y="30" width="1" height="1" fill="#F69D3A" />
<rect x="6" y="31" width="1" height="1" fill="#F69D3A" />
<rect x="7" y="31" width="1" height="1" fill="#E9ECB1" />
<rect x="6" y="32" width="1" height="1" fill="#E9ECB1" />
<rect x="7" y="32" width="1" height="1" fill="#F69D3A" />
<rect x="6" y="33" width="1" height="1" fill="#F69D3A" />
<rect x="7" y="33" width="1" height="1" fill="#E9ECB1" />
<rect x="6" y="34" width="1" height="1" fill="#E9ECB1" />
<rect x="7" y="34" width="1" height="1" fill="#F69D3A" />
<rect x="6" y="35" width="1" height="1" fill="#F69D3A" />
<rect x="7" y="35" width="1" height="1" fill="#E9ECB1" />
<rect x="5" y="36" width="22" height="1" fill="#85113F" />
<rect x="28" y="36" width="28" height="1" fill="#85113F" />
<rect x="5" y="37" width="1" height="19" fill="#F69D3A" />
<rect x="6" y="37" width="1" height="1" fill="#E9ECB1" />
<rect x="7" y="37" width="1" height="1" fill="#F69D3A" />
<rect x="8" y="37" width="19" height="19" fill="#E9ECB1" />
<rect x="28" y="37" width="28" height="1" fill="#F69D3A" />
<rect x="56" y="37" width="2" height="1" fill="#85113F" />
<rect x="6" y="38" width="1" height="1" fill="#F69D3A" />
<rect x="7" y="38" width="1" height="1" fill="#E9ECB1" />
<rect x="28" y="38" width="1" height="1" fill="#F69D3A" />
<rect x="29" y="38" width="1" height="1" fill="#E9ECB1" />
<rect x="30" y="38" width="1" height="1" fill="#F69D3A" />
<rect x="31" y="38" width="1" height="1" fill="#E9ECB1" />
<rect x="32" y="38" width="1" height="1" fill="#F69D3A" />
<rect x="33" y="38" width="1" height="1" fill="#E9ECB1" />
<rect x="34" y="38" width="1" height="1" fill="#F69D3A" />
<rect x="35" y="38" width="1" height="1" fill="#E9ECB1" />
<rect x="36" y="38" width="1" height="1" fill="#F69D3A" />
<rect x="37" y="38" width="1" height="1" fill="#E9ECB1" />
<rect x="38" y="38" width="1" height="1" fill="#F69D3A" />
<rect x="39" y="38" width="1" height="1" fill="#E9ECB1" />
<rect x="40" y="38" width="1" height="1" fill="#F69D3A" />
<rect x="41" y="38" width="1" height="1" fill="#E9ECB1" />
<rect x="42" y="38" width="1" height="1" fill="#F69D3A" />
<rect x="43" y="38" width="1" height="1" fill="#E9ECB1" />
<rect x="44" y="38" width="1" height="1" fill="#F69D3A" />
<rect x="45" y="38" width="1" height="1" fill="#E9ECB1" />
<rect x="46" y="38" width="1" height="1" fill="#F69D3A" />
<rect x="47" y="38" width="1" height="1" fill="#E9ECB1" />
<rect x="48" y="38" width="1" height="1" fill="#F69D3A" />
<rect x="49" y="38" width="1" height="1" fill="#E9ECB1" />
<rect x="50" y="38" width="3" height="1" fill="#F69D3A" />
<rect x="53" y="38" width="3" height="20" fill="#E9ECB1" />
<rect x="56" y="38" width="2" height="1" fill="#F69D3A" />
<rect x="58" y="38" width="1" height="2" fill="#85113F" />
<rect x="6" y="39" width="1" height="1" fill="#E9ECB1" />
<rect x="7" y="39" width="1" height="1" fill="#F69D3A" />
<rect x="28" y="39" width="1" height="18" fill="#E9ECB1" />
<rect x="29" y="39" width="1" height="1" fill="#F69D3A" />
<rect x="30" y="39" width="1" height="18" fill="#E9ECB1" />
<rect x="31" y="39" width="1" height="1" fill="#F69D3A" />
<rect x="32" y="39" width="1" height="18" fill="#E9ECB1" />
<rect x="33" y="39" width="1" height="1" fill="#F69D3A" />
<rect x="34" y="39" width="1" height="18" fill="#E9ECB1" />
<rect x="35" y="39" width="1" height="1" fill="#F69D3A" />
<rect x="36" y="39" width="1" height="18" fill="#E9ECB1" />
<rect x="37" y="39" width="1" height="1" fill="#F69D3A" />
<rect x="38" y="39" width="1" height="18" fill="#E9ECB1" />
<rect x="39" y="39" width="1" height="1" fill="#F69D3A" />
<rect x="40" y="39" width="1" height="18" fill="#E9ECB1" />
<rect x="41" y="39" width="1" height="1" fill="#F69D3A" />
<rect x="42" y="39" width="1" height="18" fill="#E9ECB1" />
<rect x="43" y="39" width="1" height="1" fill="#F69D3A" />
<rect x="44" y="39" width="1" height="18" fill="#E9ECB1" />
<rect x="45" y="39" width="1" height="1" fill="#F69D3A" />
<rect x="46" y="39" width="1" height="18" fill="#E9ECB1" />
<rect x="47" y="39" width="1" height="1" fill="#F69D3A" />
<rect x="48" y="39" width="1" height="18" fill="#E9ECB1" />
<rect x="49" y="39" width="1" height="1" fill="#F69D3A" />
<rect x="50" y="39" width="3" height="18" fill="#E9ECB1" />
<rect x="56" y="39" width="1" height="18" fill="#E9ECB1" />
<rect x="57" y="39" width="1" height="1" fill="#F69D3A" />
<rect x="6" y="40" width="1" height="1" fill="#F69D3A" />
<rect x="7" y="40" width="1" height="1" fill="#E9ECB1" />
<rect x="29" y="40" width="1" height="16" fill="#E9ECB1" />
<rect x="31" y="40" width="1" height="16" fill="#E9ECB1" />
<rect x="33" y="40" width="1" height="16" fill="#E9ECB1" />
<rect x="35" y="40" width="1" height="16" fill="#E9ECB1" />
<rect x="37" y="40" width="1" height="16" fill="#E9ECB1" />
<rect x="39" y="40" width="1" height="16" fill="#E9ECB1" />
<rect x="41" y="40" width="1" height="16" fill="#E9ECB1" />
<rect x="43" y="40" width="1" height="16" fill="#E9ECB1" />
<rect x="45" y="40" width="1" height="16" fill="#E9ECB1" />
<rect x="47" y="40" width="1" height="16" fill="#E9ECB1" />
<rect x="49" y="40" width="1" height="16" fill="#E9ECB1" />
<rect x="57" y="40" width="1" height="16" fill="#E9ECB1" />
<rect x="58" y="40" width="1" height="2" fill="#F69D3A" />
<rect x="59" y="40" width="1" height="16" fill="#85113F" />
<rect x="6" y="41" width="1" height="1" fill="#E9ECB1" />
<rect x="7" y="41" width="1" height="1" fill="#F69D3A" />
<rect x="6" y="42" width="1" height="1" fill="#F69D3A" />
<rect x="7" y="42" width="1" height="1" fill="#E9ECB1" />
<rect x="58" y="42" width="1" height="12" fill="#E9ECB1" />
<rect x="6" y="43" width="1" height="1" fill="#E9ECB1" />
<rect x="7" y="43" width="1" height="1" fill="#F69D3A" />
<rect x="6" y="44" width="1" height="1" fill="#F69D3A" />
<rect x="7" y="44" width="1" height="1" fill="#E9ECB1" />
<rect x="6" y="45" width="1" height="1" fill="#E9ECB1" />
<rect x="7" y="45" width="1" height="1" fill="#F69D3A" />
<rect x="6" y="46" width="1" height="1" fill="#F69D3A" />
<rect x="7" y="46" width="1" height="1" fill="#E9ECB1" />
<rect x="6" y="47" width="1" height="1" fill="#E9ECB1" />
<rect x="7" y="47" width="1" height="1" fill="#F69D3A" />
<rect x="6" y="48" width="1" height="1" fill="#F69D3A" />
<rect x="7" y="48" width="1" height="1" fill="#E9ECB1" />
<rect x="6" y="49" width="1" height="1" fill="#E9ECB1" />
<rect x="7" y="49" width="1" height="1" fill="#F69D3A" />
<rect x="6" y="50" width="1" height="3" fill="#F69D3A" />
<rect x="7" y="50" width="1" height="7" fill="#E9ECB1" />
<rect x="6" y="53" width="1" height="3" fill="#E9ECB1" />
<rect x="58" y="54" width="1" height="2" fill="#F69D3A" />
<rect x="5" y="56" width="1" height="2" fill="#85113F" />
<rect x="6" y="56" width="1" height="2" fill="#F69D3A" />
<rect x="8" y="56" width="6" height="1" fill="#E9ECB1" />
<rect x="14" y="56" width="1" height="1" fill="#F69D3A" />
<rect x="15" y="56" width="1" height="1" fill="#E9ECB1" />
<rect x="16" y="56" width="1" height="1" fill="#F69D3A" />
<rect x="17" y="56" width="1" height="1" fill="#E9ECB1" />
<rect x="18" y="56" width="1" height="1" fill="#F69D3A" />
<rect x="19" y="56" width="1" height="1" fill="#E9ECB1" />
<rect x="20" y="56" width="1" height="1" fill="#F69D3A" />
<rect x="21" y="56" width="1" height="1" fill="#E9ECB1" />
<rect x="22" y="56" width="1" height="1" fill="#F69D3A" />
<rect x="23" y="56" width="1" height="1" fill="#E9ECB1" />
<rect x="24" y="56" width="1" height="1" fill="#F69D3A" />
<rect x="25" y="56" width="1" height="1" fill="#E9ECB1" />
<rect x="26" y="56" width="1" height="1" fill="#F69D3A" />
<rect x="29" y="56" width="1" height="1" fill="#F69D3A" />
<rect x="31" y="56" width="1" height="1" fill="#F69D3A" />
<rect x="33" y="56" width="1" height="1" fill="#F69D3A" />
<rect x="35" y="56" width="1" height="1" fill="#F69D3A" />
<rect x="37" y="56" width="1" height="1" fill="#F69D3A" />
<rect x="39" y="56" width="1" height="1" fill="#F69D3A" />
<rect x="41" y="56" width="1" height="1" fill="#F69D3A" />
<rect x="43" y="56" width="1" height="1" fill="#F69D3A" />
<rect x="45" y="56" width="1" height="1" fill="#F69D3A" />
<rect x="47" y="56" width="1" height="1" fill="#F69D3A" />
<rect x="49" y="56" width="1" height="1" fill="#F69D3A" />
<rect x="57" y="56" width="1" height="2" fill="#F69D3A" />
<rect x="58" y="56" width="1" height="2" fill="#85113F" />
<rect x="7" y="57" width="1" height="1" fill="#F69D3A" />
<rect x="8" y="57" width="3" height="1" fill="#E9ECB1" />
<rect x="11" y="57" width="3" height="2" fill="#F69D3A" />
<rect x="14" y="57" width="1" height="1" fill="#E9ECB1" />
<rect x="15" y="57" width="1" height="2" fill="#F69D3A" />
<rect x="16" y="57" width="1" height="1" fill="#E9ECB1" />
<rect x="17" y="57" width="1" height="2" fill="#F69D3A" />
<rect x="18" y="57" width="1" height="1" fill="#E9ECB1" />
<rect x="19" y="57" width="1" height="2" fill="#F69D3A" />
<rect x="20" y="57" width="1" height="1" fill="#E9ECB1" />
<rect x="21" y="57" width="1" height="2" fill="#F69D3A" />
<rect x="22" y="57" width="1" height="1" fill="#E9ECB1" />
<rect x="23" y="57" width="1" height="2" fill="#F69D3A" />
<rect x="24" y="57" width="1" height="1" fill="#E9ECB1" />
<rect x="25" y="57" width="1" height="2" fill="#F69D3A" />
<rect x="26" y="57" width="1" height="1" fill="#E9ECB1" />
<rect x="28" y="57" width="1" height="2" fill="#F69D3A" />
<rect x="29" y="57" width="1" height="1" fill="#E9ECB1" />
<rect x="30" y="57" width="1" height="2" fill="#F69D3A" />
<rect x="31" y="57" width="1" height="1" fill="#E9ECB1" />
<rect x="32" y="57" width="1" height="2" fill="#F69D3A" />
<rect x="33" y="57" width="1" height="1" fill="#E9ECB1" />
<rect x="34" y="57" width="1" height="2" fill="#F69D3A" />
<rect x="35" y="57" width="1" height="1" fill="#E9ECB1" />
<rect x="36" y="57" width="1" height="2" fill="#F69D3A" />
<rect x="37" y="57" width="1" height="1" fill="#E9ECB1" />
<rect x="38" y="57" width="1" height="2" fill="#F69D3A" />
<rect x="39" y="57" width="1" height="1" fill="#E9ECB1" />
<rect x="40" y="57" width="1" height="2" fill="#F69D3A" />
<rect x="41" y="57" width="1" height="1" fill="#E9ECB1" />
<rect x="42" y="57" width="1" height="2" fill="#F69D3A" />
<rect x="43" y="57" width="1" height="1" fill="#E9ECB1" />
<rect x="44" y="57" width="1" height="2" fill="#F69D3A" />
<rect x="45" y="57" width="1" height="1" fill="#E9ECB1" />
<rect x="46" y="57" width="1" height="2" fill="#F69D3A" />
<rect x="47" y="57" width="1" height="1" fill="#E9ECB1" />
<rect x="48" y="57" width="1" height="2" fill="#F69D3A" />
<rect x="49" y="57" width="1" height="1" fill="#E9ECB1" />
<rect x="50" y="57" width="3" height="2" fill="#F69D3A" />
<rect x="56" y="57" width="1" height="1" fill="#F69D3A" />
<rect x="6" y="58" width="2" height="1" fill="#85113F" />
<rect x="8" y="58" width="3" height="1" fill="#F69D3A" />
<rect x="14" y="58" width="1" height="1" fill="#F69D3A" />
<rect x="16" y="58" width="1" height="1" fill="#F69D3A" />
<rect x="18" y="58" width="1" height="1" fill="#F69D3A" />
<rect x="20" y="58" width="1" height="1" fill="#F69D3A" />
<rect x="22" y="58" width="1" height="1" fill="#F69D3A" />
<rect x="24" y="58" width="1" height="1" fill="#F69D3A" />
<rect x="26" y="58" width="1" height="1" fill="#F69D3A" />
<rect x="29" y="58" width="1" height="1" fill="#F69D3A" />
<rect x="31" y="58" width="1" height="1" fill="#F69D3A" />
<rect x="33" y="58" width="1" height="1" fill="#F69D3A" />
<rect x="35" y="58" width="1" height="1" fill="#F69D3A" />
<rect x="37" y="58" width="1" height="1" fill="#F69D3A" />
<rect x="39" y="58" width="1" height="1" fill="#F69D3A" />
<rect x="41" y="58" width="1" height="1" fill="#F69D3A" />
<rect x="43" y="58" width="1" height="1" fill="#F69D3A" />
<rect x="45" y="58" width="1" height="1" fill="#F69D3A" />
<rect x="47" y="58" width="1" height="1" fill="#F69D3A" />
<rect x="49" y="58" width="1" height="1" fill="#F69D3A" />
<rect x="53" y="58" width="3" height="1" fill="#F69D3A" />
<rect x="56" y="58" width="2" height="1" fill="#85113F" />
<rect x="8" y="59" width="19" height="1" fill="#85113F" />
<rect x="28" y="59" width="28" height="1" fill="#85113F" />
</svg>