<?xml version="1.0" encoding="UTF-8" ?>
<svg version="1.1" width="64" height="64" xmlns="http://www.w3.org/2000/svg" shape-rendering="crispEdges">
<rect x="26" y="0" width="12" height="5" fill="#222034" />
<rect x="22" y="1" width="4" height="5" fill="#222034" />
<rect x="38" y="1" width="4" height="5" fill="#222034" />
<rect x="20" y="2" width="2" height="6" fill="#222034" />
<rect x="42" y="2" width="2" height="6" fill="#222034" />
<rect x="17" y="3" width="3" height="5" fill="#222034" />
<rect x="44" y="3" width="3" height="5" fill="#222034" />
<rect x="16" y="4" width="1" height="6" fill="#222034" />
<rect x="47" y="4" width="1" height="6" fill="#222034" />
<rect x="14" y="5" width="2" height="6" fill="#222034" />
<rect x="26" y="5" width="2" height="1" fill="#222034" />
<rect x="28" y="5" width="8" height="1" fill="#663931" />
<rect x="36" y="5" width="2" height="1" fill="#222034" />
<rect x="48" y="5" width="2" height="6" fill="#222034" />
<rect x="13" y="6" width="1" height="7" fill="#222034" />
<rect x="22" y="6" width="2" height="1" fill="#222034" />
<rect x="24" y="6" width="4" height="1" fill="#663931" />
<rect x="28" y="6" width="8" height="2" fill="#45283C" />
<rect x="36" y="6" width="4" height="1" fill="#663931" />
<rect x="40" y="6" width="2" height="1" fill="#222034" />
<rect x="50" y="6" width="1" height="7" fill="#222034" />
<rect x="12" y="7" width="1" height="7" fill="#222034" />
<rect x="22" y="7" width="2" height="1" fill="#663931" />
<rect x="24" y="7" width="4" height="2" fill="#45283C" />
<rect x="36" y="7" width="4" height="2" fill="#45283C" />
<rect x="40" y="7" width="2" height="1" fill="#663931" />
<rect x="51" y="7" width="1" height="7" fill="#222034" />
<rect x="11" y="8" width="1" height="7" fill="#222034" />
<rect x="17" y="8" width="2" height="1" fill="#222034" />
<rect x="19" y="8" width="3" height="1" fill="#663931" />
<rect x="22" y="8" width="2" height="3" fill="#45283C" />
<rect x="28" y="8" width="8" height="1" fill="#D9A066" />
<rect x="40" y="8" width="2" height="3" fill="#45283C" />
<rect x="42" y="8" width="3" height="1" fill="#663931" />
<rect x="45" y="8" width="2" height="1" fill="#222034" />
<rect x="52" y="8" width="1" height="7" fill="#222034" />
<rect x="10" y="9" width="1" height="7" fill="#222034" />
<rect x="17" y="9" width="1" height="1" fill="#222034" />
<rect x="18" y="9" width="1" height="1" fill="#663931" />
<rect x="19" y="9" width="3" height="4" fill="#45283C" />
<rect x="24" y="9" width="2" height="1" fill="#45283C" />
<rect x="26" y="9" width="9" height="4" fill="#DF7126" />
<rect x="35" y="9" width="3" height="1" fill="#D9A066" />
<rect x="38" y="9" width="2" height="1" fill="#45283C" />
<rect x="42" y="9" width="3" height="4" fill="#45283C" />
<rect x="45" y="9" width="1" height="1" fill="#663931" />
<rect x="46" y="9" width="1" height="1" fill="#222034" />
<rect x="53" y="9" width="1" height="7" fill="#222034" />
<rect x="9" y="10" width="1" height="8" fill="#222034" />
<rect x="16" y="10" width="2" height="1" fill="#663931" />
<rect x="18" y="10" width="1" height="8" fill="#45283C" />
<rect x="24" y="10" width="2" height="6" fill="#DF7126" />
<rect x="35" y="10" width="2" height="4" fill="#DF7126" />
<rect x="37" y="10" width="3" height="1" fill="#D9A066" />
<rect x="45" y="10" width="1" height="8" fill="#45283C" />
<rect x="46" y="10" width="2" height="1" fill="#663931" />
<rect x="54" y="10" width="1" height="8" fill="#222034" />
<rect x="8" y="11" width="1" height="8" fill="#222034" />
<rect x="14" y="11" width="1" height="1" fill="#222034" />
<rect x="15" y="11" width="1" height="1" fill="#663931" />
<rect x="16" y="11" width="2" height="43" fill="#45283C" />
<rect x="22" y="11" width="1" height="1" fill="#45283C" />
<rect x="23" y="11" width="1" height="9" fill="#DF7126" />
<rect x="37" y="11" width="1" height="4" fill="#DF7126" />
<rect x="38" y="11" width="3" height="1" fill="#D9A066" />
<rect x="41" y="11" width="1" height="1" fill="#45283C" />
<rect x="46" y="11" width="2" height="43" fill="#45283C" />
<rect x="48" y="11" width="1" height="1" fill="#663931" />
<rect x="49" y="11" width="1" height="1" fill="#222034" />
<rect x="55" y="11" width="1" height="8" fill="#222034" />
<rect x="7" y="12" width="1" height="10" fill="#222034" />
<rect x="14" y="12" width="1" height="1" fill="#663931" />
<rect x="15" y="12" width="1" height="41" fill="#45283C" />
<rect x="22" y="12" width="1" height="20" fill="#DF7126" />
<rect x="38" y="12" width="2" height="4" fill="#DF7126" />
<rect x="40" y="12" width="2" height="1" fill="#D9A066" />
<rect x="48" y="12" width="1" height="41" fill="#45283C" />
<rect x="49" y="12" width="1" height="1" fill="#663931" />
<rect x="56" y="12" width="1" height="10" fill="#222034" />
<rect x="6" y="13" width="1" height="11" fill="#222034" />
<rect x="13" y="13" width="1" height="1" fill="#663931" />
<rect x="14" y="13" width="1" height="39" fill="#45283C" />
<rect x="19" y="13" width="2" height="1" fill="#45283C" />
<rect x="21" y="13" width="1" height="18" fill="#DF7126" />
<rect x="26" y="13" width="4" height="1" fill="#DF7126" />
<rect x="30" y="13" width="4" height="1" fill="#4B692F" />
<rect x="34" y="13" width="1" height="1" fill="#DF7126" />
<rect x="40" y="13" width="1" height="7" fill="#DF7126" />
<rect x="41" y="13" width="2" height="1" fill="#D9A066" />
<rect x="43" y="13" width="2" height="1" fill="#45283C" />
<rect x="49" y="13" width="1" height="39" fill="#45283C" />
<rect x="50" y="13" width="1" height="1" fill="#663931" />
<rect x="57" y="13" width="1" height="11" fill="#222034" />
<rect x="5" y="14" width="1" height="14" fill="#222034" />
<rect x="12" y="14" width="2" height="36" fill="#45283C" />
<rect x="19" y="14" width="1" height="2" fill="#45283C" />
<rect x="20" y="14" width="1" height="16" fill="#DF7126" />
<rect x="26" y="14" width="2" height="1" fill="#DF7126" />
<rect x="28" y="14" width="5" height="16" fill="#524B24" />
<rect x="33" y="14" width="3" height="1" fill="#4B692F" />
<rect x="36" y="14" width="1" height="1" fill="#DF7126" />
<rect x="41" y="14" width="1" height="18" fill="#DF7126" />
<rect x="42" y="14" width="2" height="1" fill="#D9A066" />
<rect x="44" y="14" width="1" height="2" fill="#45283C" />
<rect x="50" y="14" width="2" height="36" fill="#45283C" />
<rect x="58" y="14" width="1" height="14" fill="#222034" />
<rect x="11" y="15" width="1" height="34" fill="#45283C" />
<rect x="26" y="15" width="2" height="14" fill="#524B24" />
<rect x="33" y="15" width="2" height="15" fill="#524B24" />
<rect x="35" y="15" width="3" height="1" fill="#4B692F" />
<rect x="42" y="15" width="1" height="16" fill="#DF7126" />
<rect x="43" y="15" width="1" height="2" fill="#D9A066" />
<rect x="52" y="15" width="1" height="34" fill="#45283C" />
<rect x="4" y="16" width="1" height="32" fill="#222034" />
<rect x="10" y="16" width="1" height="32" fill="#45283C" />
<rect x="19" y="16" width="1" height="12" fill="#DF7126" />
<rect x="24" y="16" width="1" height="2" fill="#DF7126" />
<rect x="25" y="16" width="1" height="12" fill="#524B24" />
<rect x="35" y="16" width="2" height="13" fill="#524B24" />
<rect x="37" y="16" width="2" height="1" fill="#4B692F" />
<rect x="39" y="16" width="1" height="2" fill="#DF7126" />
<rect x="44" y="16" width="1" height="2" fill="#D9A066" />
<rect x="53" y="16" width="1" height="32" fill="#45283C" />
<rect x="59" y="16" width="1" height="32" fill="#222034" />
<rect x="3" y="17" width="1" height="30" fill="#222034" />
<rect x="37" y="17" width="1" height="12" fill="#524B24" />
<rect x="38" y="17" width="1" height="1" fill="#4B692F" />
<rect x="43" y="17" width="1" height="13" fill="#DF7126" />
<rect x="60" y="17" width="1" height="30" fill="#222034" />
<rect x="9" y="18" width="1" height="28" fill="#45283C" />
<rect x="18" y="18" width="1" height="8" fill="#DF7126" />
<rect x="24" y="18" width="1" height="8" fill="#524B24" />
<rect x="38" y="18" width="1" height="10" fill="#524B24" />
<rect x="39" y="18" width="1" height="2" fill="#4B692F" />
<rect x="44" y="18" width="1" height="10" fill="#DF7126" />
<rect x="45" y="18" width="1" height="1" fill="#D9A066" />
<rect x="54" y="18" width="1" height="28" fill="#45283C" />
<rect x="8" y="19" width="1" height="26" fill="#45283C" />
<rect x="45" y="19" width="1" height="7" fill="#DF7126" />
<rect x="55" y="19" width="1" height="26" fill="#45283C" />
<rect x="2" y="20" width="1" height="24" fill="#222034" />
<rect x="23" y="20" width="1" height="4" fill="#524B24" />
<rect x="39" y="20" width="2" height="4" fill="#524B24" />
<rect x="61" y="20" width="1" height="24" fill="#222034" />
<rect x="1" y="22" width="1" height="20" fill="#222034" />
<rect x="7" y="22" width="1" height="20" fill="#45283C" />
<rect x="56" y="22" width="1" height="20" fill="#45283C" />
<rect x="62" y="22" width="1" height="20" fill="#222034" />
<rect x="6" y="24" width="1" height="16" fill="#45283C" />
<rect x="23" y="24" width="1" height="9" fill="#DF7126" />
<rect x="39" y="24" width="1" height="2" fill="#524B24" />
<rect x="40" y="24" width="1" height="9" fill="#DF7126" />
<rect x="57" y="24" width="1" height="16" fill="#45283C" />
<rect x="0" y="26" width="1" height="12" fill="#222034" />
<rect x="18" y="26" width="1" height="4" fill="#AC3232" />
<rect x="24" y="26" width="1" height="8" fill="#DF7126" />
<rect x="39" y="26" width="1" height="8" fill="#DF7126" />
<rect x="45" y="26" width="1" height="4" fill="#AC3232" />
<rect x="63" y="26" width="1" height="12" fill="#222034" />
<rect x="5" y="28" width="1" height="8" fill="#45283C" />
<rect x="19" y="28" width="1" height="3" fill="#AC3232" />
<rect x="25" y="28" width="1" height="6" fill="#DF7126" />
<rect x="38" y="28" width="1" height="6" fill="#DF7126" />
<rect x="44" y="28" width="1" height="3" fill="#AC3232" />
<rect x="58" y="28" width="1" height="8" fill="#45283C" />
<rect x="26" y="29" width="2" height="6" fill="#DF7126" />
<rect x="35" y="29" width="1" height="1" fill="#524B24" />
<rect x="36" y="29" width="2" height="6" fill="#DF7126" />
<rect x="18" y="30" width="1" height="25" fill="#45283C" />
<rect x="20" y="30" width="1" height="2" fill="#AC3232" />
<rect x="28" y="30" width="2" height="6" fill="#DF7126" />
<rect x="30" y="30" width="4" height="1" fill="#524B24" />
<rect x="34" y="30" width="2" height="6" fill="#DF7126" />
<rect x="43" y="30" width="1" height="2" fill="#AC3232" />
<rect x="45" y="30" width="1" height="25" fill="#45283C" />
<rect x="19" y="31" width="1" height="25" fill="#45283C" />
<rect x="21" y="31" width="1" height="2" fill="#AC3232" />
<rect x="30" y="31" width="4" height="5" fill="#DF7126" />
<rect x="42" y="31" width="1" height="2" fill="#AC3232" />
<rect x="44" y="31" width="1" height="25" fill="#45283C" />
<rect x="20" y="32" width="1" height="24" fill="#45283C" />
<rect x="22" y="32" width="1" height="2" fill="#AC3232" />
<rect x="41" y="32" width="1" height="2" fill="#AC3232" />
<rect x="43" y="32" width="1" height="24" fill="#45283C" />
<rect x="21" y="33" width="1" height="23" fill="#45283C" />
<rect x="23" y="33" width="1" height="2" fill="#AC3232" />
<rect x="40" y="33" width="1" height="2" fill="#AC3232" />
<rect x="42" y="33" width="1" height="23" fill="#45283C" />
<rect x="22" y="34" width="1" height="23" fill="#45283C" />
<rect x="24" y="34" width="2" height="2" fill="#AC3232" />
<rect x="38" y="34" width="2" height="2" fill="#AC3232" />
<rect x="41" y="34" width="1" height="23" fill="#45283C" />
<rect x="23" y="35" width="1" height="22" fill="#45283C" />
<rect x="26" y="35" width="2" height="2" fill="#AC3232" />
<rect x="36" y="35" width="2" height="2" fill="#AC3232" />
<rect x="40" y="35" width="1" height="22" fill="#45283C" />
<rect x="5" y="36" width="1" height="14" fill="#222034" />
<rect x="24" y="36" width="2" height="22" fill="#45283C" />
<rect x="28" y="36" width="8" height="2" fill="#AC3232" />
<rect x="38" y="36" width="2" height="22" fill="#45283C" />
<rect x="58" y="36" width="1" height="14" fill="#222034" />
<rect x="26" y="37" width="2" height="21" fill="#45283C" />
<rect x="36" y="37" width="2" height="21" fill="#45283C" />
<rect x="28" y="38" width="8" height="21" fill="#45283C" />
<rect x="6" y="40" width="1" height="11" fill="#222034" />
<rect x="57" y="40" width="1" height="11" fill="#222034" />
<rect x="7" y="42" width="1" height="10" fill="#222034" />
<rect x="56" y="42" width="1" height="10" fill="#222034" />
<rect x="8" y="45" width="1" height="8" fill="#222034" />
<rect x="55" y="45" width="1" height="8" fill="#222034" />
<rect x="9" y="46" width="1" height="8" fill="#222034" />
<rect x="54" y="46" width="1" height="8" fill="#222034" />
<rect x="10" y="48" width="1" height="7" fill="#222034" />
<rect x="53" y="48" width="1" height="7" fill="#222034" />
<rect x="11" y="49" width="1" height="7" fill="#222034" />
<rect x="52" y="49" width="1" height="7" fill="#222034" />
<rect x="12" y="50" width="1" height="7" fill="#222034" />
<rect x="13" y="50" width="1" height="1" fill="#45283C" />
<rect x="50" y="50" width="1" height="1" fill="#45283C" />
<rect x="51" y="50" width="1" height="7" fill="#222034" />
<rect x="13" y="51" width="1" height="7" fill="#222034" />
<rect x="50" y="51" width="1" height="7" fill="#222034" />
<rect x="14" y="52" width="1" height="7" fill="#222034" />
<rect x="49" y="52" width="1" height="7" fill="#222034" />
<rect x="15" y="53" width="1" height="6" fill="#222034" />
<rect x="48" y="53" width="1" height="6" fill="#222034" />
<rect x="16" y="54" width="2" height="6" fill="#222034" />
<rect x="46" y="54" width="2" height="6" fill="#222034" />
<rect x="18" y="55" width="1" height="6" fill="#222034" />
<rect x="45" y="55" width="1" height="6" fill="#222034" />
<rect x="19" y="56" width="3" height="5" fill="#222034" />
<rect x="42" y="56" width="3" height="5" fill="#222034" />
<rect x="22" y="57" width="2" height="6" fill="#222034" />
<rect x="40" y="57" width="2" height="6" fill="#222034" />
<rect x="24" y="58" width="4" height="5" fill="#222034" />
<rect x="36" y="58" width="4" height="5" fill="#222034" />
<rect x="28" y="59" width="8" height="5" fill="#222034" />
<rect x="17" y="60" width="1" height="1" fill="#222034" />
<rect x="46" y="60" width="1" height="1" fill="#222034" />
<rect x="20" y="61" width="2" height="1" fill="#222034" />
<rect x="42" y="61" width="2" height="1" fill="#222034" />
<rect x="26" y="63" width="2" height="1" fill="#222034" />
<rect x="36" y="63" width="2" height="1" fill="#222034" />
</svg>