<?xml version="1.0" encoding="UTF-8" ?>
<svg version="1.1" width="32" height="32" xmlns="http://www.w3.org/2000/svg" shape-rendering="crispEdges">
<rect x="15" y="0" width="2" height="1" fill="#393939" />
<rect x="14" y="1" width="1" height="3" fill="#393939" />
<rect x="15" y="1" width="1" height="14" fill="#F6CD26" />
<rect x="16" y="1" width="1" height="3" fill="#F5D925" />
<rect x="17" y="1" width="1" height="3" fill="#393939" />
<rect x="13" y="4" width="1" height="2" fill="#393939" />
<rect x="14" y="4" width="1" height="2" fill="#F5D925" />
<rect x="16" y="4" width="1" height="11" fill="#F6CD26" />
<rect x="17" y="4" width="1" height="2" fill="#F5D925" />
<rect x="18" y="4" width="1" height="2" fill="#393939" />
<rect x="12" y="6" width="1" height="1" fill="#393939" />
<rect x="13" y="6" width="1" height="1" fill="#F5D925" />
<rect x="14" y="6" width="1" height="2" fill="#F6CD26" />
<rect x="17" y="6" width="1" height="2" fill="#F6CD26" />
<rect x="18" y="6" width="1" height="1" fill="#F5D925" />
<rect x="19" y="6" width="1" height="1" fill="#393939" />
<rect x="11" y="7" width="1" height="2" fill="#393939" />
<rect x="12" y="7" width="1" height="2" fill="#F5D925" />
<rect x="13" y="7" width="1" height="7" fill="#F6CD26" />
<rect x="18" y="7" width="1" height="7" fill="#F6CD26" />
<rect x="19" y="7" width="1" height="2" fill="#F5D925" />
<rect x="20" y="7" width="1" height="2" fill="#393939" />
<rect x="14" y="8" width="1" height="6" fill="#393939" />
<rect x="17" y="8" width="1" height="6" fill="#393939" />
<rect x="10" y="9" width="1" height="1" fill="#393939" />
<rect x="11" y="9" width="1" height="1" fill="#F5D925" />
<rect x="12" y="9" width="1" height="5" fill="#F6CD26" />
<rect x="19" y="9" width="1" height="5" fill="#F6CD26" />
<rect x="20" y="9" width="1" height="1" fill="#F5D925" />
<rect x="21" y="9" width="1" height="1" fill="#393939" />
<rect x="9" y="10" width="1" height="1" fill="#393939" />
<rect x="10" y="10" width="1" height="1" fill="#F5D925" />
<rect x="11" y="10" width="1" height="4" fill="#F6CD26" />
<rect x="20" y="10" width="1" height="4" fill="#F6CD26" />
<rect x="21" y="10" width="1" height="1" fill="#F5D925" />
<rect x="22" y="10" width="1" height="1" fill="#393939" />
<rect x="7" y="11" width="2" height="1" fill="#393939" />
<rect x="9" y="11" width="1" height="1" fill="#F5D925" />
<rect x="10" y="11" width="1" height="3" fill="#F6CD26" />
<rect x="21" y="11" width="1" height="3" fill="#F6CD26" />
<rect x="22" y="11" width="1" height="1" fill="#F5D925" />
<rect x="23" y="11" width="2" height="1" fill="#393939" />
<rect x="6" y="12" width="1" height="1" fill="#393939" />
<rect x="7" y="12" width="2" height="1" fill="#F5D925" />
<rect x="9" y="12" width="1" height="2" fill="#F6CD26" />
<rect x="22" y="12" width="1" height="2" fill="#F6CD26" />
<rect x="23" y="12" width="2" height="1" fill="#F5D925" />
<rect x="25" y="12" width="1" height="1" fill="#393939" />
<rect x="4" y="13" width="2" height="1" fill="#393939" />
<rect x="6" y="13" width="1" height="1" fill="#F5D925" />
<rect x="7" y="13" width="2" height="1" fill="#F6CD26" />
<rect x="23" y="13" width="2" height="1" fill="#F6CD26" />
<rect x="25" y="13" width="1" height="1" fill="#F5D925" />
<rect x="26" y="13" width="2" height="1" fill="#393939" />
<rect x="1" y="14" width="3" height="1" fill="#393939" />
<rect x="4" y="14" width="2" height="1" fill="#F5D925" />
<rect x="6" y="14" width="2" height="4" fill="#F6CD26" />
<rect x="8" y="14" width="6" height="1" fill="#393939" />
<rect x="14" y="14" width="1" height="1" fill="#B39736" />
<rect x="17" y="14" width="1" height="1" fill="#B39736" />
<rect x="18" y="14" width="6" height="1" fill="#393939" />
<rect x="24" y="14" width="2" height="4" fill="#F6CD26" />
<rect x="26" y="14" width="2" height="1" fill="#F5D925" />
<rect x="28" y="14" width="3" height="1" fill="#393939" />
<rect x="0" y="15" width="1" height="2" fill="#393939" />
<rect x="1" y="15" width="3" height="1" fill="#F5D925" />
<rect x="4" y="15" width="2" height="2" fill="#F6CD26" />
<rect x="8" y="15" width="6" height="1" fill="#B39736" />
<rect x="14" y="15" width="1" height="3" fill="#F6CD26" />
<rect x="15" y="15" width="2" height="2" fill="#B39736" />
<rect x="17" y="15" width="1" height="3" fill="#F6CD26" />
<rect x="18" y="15" width="6" height="1" fill="#B39736" />
<rect x="26" y="15" width="5" height="1" fill="#F6CD26" />
<rect x="31" y="15" width="1" height="2" fill="#393939" />
<rect x="1" y="16" width="3" height="1" fill="#F6CD26" />
<rect x="8" y="16" width="6" height="1" fill="#F6CD26" />
<rect x="18" y="16" width="6" height="1" fill="#F6CD26" />
<rect x="26" y="16" width="2" height="1" fill="#F6CD26" />
<rect x="28" y="16" width="3" height="1" fill="#E6A422" />
<rect x="1" y="17" width="3" height="1" fill="#393939" />
<rect x="4" y="17" width="2" height="1" fill="#E6A422" />
<rect x="8" y="17" width="6" height="1" fill="#393939" />
<rect x="15" y="17" width="2" height="11" fill="#F6CD26" />
<rect x="18" y="17" width="6" height="1" fill="#393939" />
<rect x="26" y="17" width="2" height="1" fill="#E6A422" />
<rect x="28" y="17" width="3" height="1" fill="#393939" />
<rect x="4" y="18" width="2" height="1" fill="#393939" />
<rect x="6" y="18" width="1" height="1" fill="#E6A422" />
<rect x="7" y="18" width="1" height="1" fill="#F6CD26" />
<rect x="8" y="18" width="6" height="1" fill="#B39736" />
<rect x="14" y="18" width="1" height="6" fill="#393939" />
<rect x="17" y="18" width="1" height="6" fill="#393939" />
<rect x="18" y="18" width="6" height="1" fill="#B39736" />
<rect x="24" y="18" width="1" height="1" fill="#F6CD26" />
<rect x="25" y="18" width="1" height="1" fill="#E6A422" />
<rect x="26" y="18" width="2" height="1" fill="#393939" />
<rect x="6" y="19" width="1" height="1" fill="#393939" />
<rect x="7" y="19" width="2" height="1" fill="#E6A422" />
<rect x="9" y="19" width="5" height="1" fill="#F6CD26" />
<rect x="18" y="19" width="5" height="1" fill="#F6CD26" />
<rect x="23" y="19" width="2" height="1" fill="#E6A422" />
<rect x="25" y="19" width="1" height="1" fill="#393939" />
<rect x="7" y="20" width="2" height="1" fill="#393939" />
<rect x="9" y="20" width="1" height="1" fill="#E6A422" />
<rect x="10" y="20" width="4" height="1" fill="#F6CD26" />
<rect x="18" y="20" width="4" height="1" fill="#F6CD26" />
<rect x="22" y="20" width="1" height="1" fill="#E6A422" />
<rect x="23" y="20" width="2" height="1" fill="#393939" />
<rect x="9" y="21" width="1" height="1" fill="#393939" />
<rect x="10" y="21" width="1" height="1" fill="#E6A422" />
<rect x="11" y="21" width="3" height="1" fill="#F6CD26" />
<rect x="18" y="21" width="3" height="1" fill="#F6CD26" />
<rect x="21" y="21" width="1" height="1" fill="#E6A422" />
<rect x="22" y="21" width="1" height="1" fill="#393939" />
<rect x="10" y="22" width="1" height="1" fill="#393939" />
<rect x="11" y="22" width="1" height="1" fill="#E6A422" />
<rect x="12" y="22" width="2" height="1" fill="#F6CD26" />
<rect x="18" y="22" width="2" height="1" fill="#F6CD26" />
<rect x="20" y="22" width="1" height="1" fill="#E6A422" />
<rect x="21" y="22" width="1" height="1" fill="#393939" />
<rect x="11" y="23" width="1" height="2" fill="#393939" />
<rect x="12" y="23" width="1" height="2" fill="#E6A422" />
<rect x="13" y="23" width="1" height="2" fill="#F6CD26" />
<rect x="18" y="23" width="1" height="2" fill="#F6CD26" />
<rect x="19" y="23" width="1" height="2" fill="#E6A422" />
<rect x="20" y="23" width="1" height="2" fill="#393939" />
<rect x="14" y="24" width="1" height="1" fill="#B39736" />
<rect x="17" y="24" width="1" height="1" fill="#B39736" />
<rect x="12" y="25" width="1" height="1" fill="#393939" />
<rect x="13" y="25" width="1" height="1" fill="#E6A422" />
<rect x="14" y="25" width="1" height="1" fill="#F6CD26" />
<rect x="17" y="25" width="1" height="1" fill="#F6CD26" />
<rect x="18" y="25" width="1" height="1" fill="#E6A422" />
<rect x="19" y="25" width="1" height="1" fill="#393939" />
<rect x="13" y="26" width="1" height="2" fill="#393939" />
<rect x="14" y="26" width="1" height="2" fill="#E6A422" />
<rect x="17" y="26" width="1" height="2" fill="#E6A422" />
<rect x="18" y="26" width="1" height="2" fill="#393939" />
<rect x="14" y="28" width="1" height="3" fill="#393939" />
<rect x="15" y="28" width="2" height="3" fill="#E6A422" />
<rect x="17" y="28" width="1" height="3" fill="#393939" />
<rect x="15" y="31" width="2" height="1" fill="#393939" />
</svg>